{
  "accessors": [
    {
      "bufferView": 2,
      "componentType": 5126,
      "count": 2125,
      "max": [
        15.150210380554199,
        -1.6891249418258667,
        17.548274993896484
      ],
      "min": [
        -15.150210380554199,
        -21.623653411865234,
        -24.162714004516602
      ],
      "type": "VEC3"
    },
    {
      "bufferView": 2,
      "byteOffset": 25500,
      "componentType": 5126,
      "count": 2125,
      "max": [
        0.99992012977600098,
        0.99950551986694336,
        1
      ],
      "min": [
        -0.99992012977600098,
        -0.9991266131401062,
        -1
      ],
      "type": "VEC3"
    },
    {
      "bufferView": 3,
      "componentType": 5126,
      "count": 2125,
      "max": [
        1,
        0.99999821186065674,
        0.99934220314025879,
        1
      ],
      "min": [
        -1,
        -0.99999815225601196,
        -0.99934226274490356,
        -1
      ],
      "type": "VEC4"
    },
    {
      "bufferView": 1,
      "componentType": 5126,
      "count": 2125,
      "max": [
        -0.0065080001950263977,
        0.99365198612213135
      ],
      "min": [
        -0.99462902545928955,
        0.0063479999080300331
      ],
      "type": "VEC2"
    },
    {
      "bufferView": 0,
      "componentType": 5125,
      "count": 9054,
      "max": [
        2124
      ],
      "min": [
        0
      ],
      "type": "SCALAR"
    },
    {
      "bufferView": 2,
      "byteOffset": 51000,
      "componentType": 5126,
      "count": 374,
      "max": [
        3.0062930583953857,
        -14.626996040344238,
        22.765842437744141
      ],
      "min": [
        -3.0062930583953857,
        -16.153331756591797,
        19.658786773681641
      ],
      "type": "VEC3"
    },
    {
      "bufferView": 2,
      "byteOffset": 55488,
      "componentType": 5126,
      "count": 374,
      "max": [
        0.91587013006210327,
        0.083608344197273254,
        0.99910092353820801
      ],
      "min": [
        -0.91587013006210327,
        -0.9925999641418457,
        -0.99645882844924927
      ],
      "type": "VEC3"
    },
    {
      "bufferView": 3,
      "byteOffset": 34000,
      "componentType": 5126,
      "count": 374,
      "max": [
        0.99906325340270996,
        0.99407005310058594,
        0.23000176250934601,
        1
      ],
      "min": [
        -0.99989616870880127,
        -0.99893790483474731,
        -0.18698485195636749,
        -1
      ],
      "type": "VEC4"
    },
    {
      "bufferView": 1,
      "byteOffset": 17000,
      "componentType": 5126,
      "count": 374,
      "max": [
        0.42846700549125671,
        -0.765625
      ],
      "min": [
        0.10931400209665298,
        -0.86230498552322388
      ],
      "type": "VEC2"
    },
    {
      "bufferView": 0,
      "byteOffset": 36216,
      "componentType": 5125,
      "count": 1488,
      "max": [
        373
      ],
      "min": [
        0
      ],
      "type": "SCALAR"
    },
    {
      "bufferView": 2,
      "byteOffset": 59976,
      "componentType": 5126,
      "count": 3215,
      "max": [
        13.037616729736328,
        -6.561150074005127,
        24.162715911865234
      ],
      "min": [
        -13.037641525268555,
        -17.877231597900391,
        -17.214061737060547
      ],
      "type": "VEC3"
    },
    {
      "bufferView": 2,
      "byteOffset": 98556,
      "componentType": 5126,
      "count": 3215,
      "max": [
        0.99949097633361816,
        1,
        0.99977010488510132
      ],
      "min": [
        -0.99949097633361816,
        -0.99999779462814331,
        -1
      ],
      "type": "VEC3"
    },
    {
      "bufferView": 3,
      "byteOffset": 39984,
      "componentType": 5126,
      "count": 3215,
      "max": [
        1,
        1,
        0.99997073411941528,
        1
      ],
      "min": [
        -0.9986720085144043,
        -0.99999547004699707,
        -0.9993254542350769,
        -1
      ],
      "type": "VEC4"
    },
    {
      "bufferView": 1,
      "byteOffset": 19992,
      "componentType": 5126,
      "count": 3215,
      "max": [
        0.99511700868606567,
        -0.0039059999398887157
      ],
      "min": [
        0.0022430000826716423,
        -0.9960939884185791
      ],
      "type": "VEC2"
    },
    {
      "bufferView": 0,
      "byteOffset": 42168,
      "componentType": 5125,
      "count": 12996,
      "max": [
        3214
      ],
      "min": [
        0
      ],
      "type": "SCALAR"
    },
    {
      "bufferView": 2,
      "byteOffset": 137136,
      "componentType": 5126,
      "count": 2053,
      "max": [
        15.702025413513184,
        -0,
        18.214950561523438
      ],
      "min": [
        -15.702025413513184,
        -22.942092895507812,
        -23.717172622680664
      ],
      "type": "VEC3"
    },
    {
      "bufferView": 2,
      "byteOffset": 161772,
      "componentType": 5126,
      "count": 2053,
      "max": [
        1,
        0.99994480609893799,
        0.99963182210922241
      ],
      "min": [
        -1,
        -0.99981677532196045,
        -0.99921178817749023
      ],
      "type": "VEC3"
    },
    {
      "bufferView": 3,
      "byteOffset": 91424,
      "componentType": 5126,
      "count": 2053,
      "max": [
        1,
        1,
        0.99999630451202393,
        1
      ],
      "min": [
        -0.99968856573104858,
        -1,
        -0.99998188018798828,
        -1
      ],
      "type": "VEC4"
    },
    {
      "bufferView": 1,
      "byteOffset": 45712,
      "componentType": 5126,
      "count": 2053,
      "max": [
        0.9926760196685791,
        0.9960939884185791
      ],
      "min": [
        -0.98339802026748657,
        0.002440999960526824
      ],
      "type": "VEC2"
    },
    {
      "bufferView": 0,
      "byteOffset": 94152,
      "componentType": 5125,
      "count": 8832,
      "max": [
        2052
      ],
      "min": [
        0
      ],
      "type": "SCALAR"
    },
    {
      "bufferView": 2,
      "byteOffset": 186408,
      "componentType": 5126,
      "count": 110,
      "max": [
        2.7792680263519287,
        -15.023159980773926,
        22.211666107177734
      ],
      "min": [
        -2.7792680263519287,
        -16.049674987792969,
        20.076034545898438
      ],
      "type": "VEC3"
    },
    {
      "bufferView": 2,
      "byteOffset": 187728,
      "componentType": 5126,
      "count": 110,
      "max": [
        0.84941202402114868,
        -0.52713912725448608,
        0.54357093572616577
      ],
      "min": [
        -0.84941202402114868,
        -0.99418812990188599,
        -0.2514706552028656
      ],
      "type": "VEC3"
    },
    {
      "bufferView": 3,
      "byteOffset": 124272,
      "componentType": 5126,
      "count": 110,
      "max": [
        0.99710553884506226,
        0.84832882881164551,
        0.15262912213802338,
        1
      ],
      "min": [
        0.52772796154022217,
        -0.84831565618515015,
        -0.1545836478471756,
        1
      ],
      "type": "VEC4"
    },
    {
      "bufferView": 1,
      "byteOffset": 62136,
      "componentType": 5126,
      "count": 110,
      "max": [
        -4.015625,
        0.82128900289535522
      ],
      "min": [
        -4.984375,
        0.22314499318599701
      ],
      "type": "VEC2"
    },
    {
      "bufferView": 0,
      "byteOffset": 129480,
      "componentType": 5125,
      "count": 528,
      "max": [
        109
      ],
      "min": [
        0
      ],
      "type": "SCALAR"
    }
  ],
  "asset": {
    "extras": {
      "author": "judasben29 (https://sketchfab.com/judasben29)",
      "license": "CC-BY-4.0 (http://creativecommons.org/licenses/by/4.0/)",
      "source": "https://sketchfab.com/models/8208ec4c0f204a0f96f41fb4154264ce",
      "title": "Disney Buzz"
    },
    "generator": "Sketchfab-3.18.2",
    "version": "2.0"
  },
  "bufferViews": [
    {
      "buffer": 0,
      "byteLength": 131592,
      "byteOffset": 0,
      "name": "floatBufferViews",
      "target": 34963
    },
    {
      "buffer": 0,
      "byteLength": 63016,
      "byteOffset": 131592,
      "byteStride": 8,
      "name": "floatBufferViews",
      "target": 34962
    },
    {
      "buffer": 0,
      "byteLength": 189048,
      "byteOffset": 194608,
      "byteStride": 12,
      "name": "floatBufferViews",
      "target": 34962
    },
    {
      "buffer": 0,
      "byteLength": 126032,
      "byteOffset": 383656,
      "byteStride": 16,
      "name": "floatBufferViews",
      "target": 34962
    }
  ],
  "buffers": [
    {
      "byteLength": 509688,
      "uri": "scene.bin"
    }
  ],
  "images": [
    {
      "uri": "textures/material_baseColor.png"
    },
    {
      "uri": "textures/material_4_baseColor.png"
    },
    {
      "uri": "textures/material_5_baseColor.png"
    },
    {
      "uri": "textures/material_2_baseColor.png"
    },
    {
      "uri": "textures/material_3_baseColor.png"
    }
  ],
  "materials": [
    {
      "doubleSided": true,
      "emissiveFactor": [
        0,
        0,
        0
      ],
      "name": "material",
      "pbrMetallicRoughness": {
        "baseColorFactor": [
          1,
          1,
          1,
          1
        ],
        "baseColorTexture": {
          "index": 0,
          "texCoord": 0
        },
        "metallicFactor": 0,
        "roughnessFactor": 0.59999999999999998
      }
    },
    {
      "doubleSided": true,
      "emissiveFactor": [
        0,
        0,
        0
      ],
      "name": "material_2",
      "pbrMetallicRoughness": {
        "baseColorFactor": [
          1,
          1,
          1,
          1
        ],
        "baseColorTexture": {
          "index": 3,
          "texCoord": 0
        },
        "metallicFactor": 0,
        "roughnessFactor": 0.59999999999999998
      }
    },
    {
      "doubleSided": true,
      "emissiveFactor": [
        0,
        0,
        0
      ],
      "name": "material_3",
      "pbrMetallicRoughness": {
        "baseColorFactor": [
          1,
          1,
          1,
          1
        ],
        "baseColorTexture": {
          "index": 4,
          "texCoord": 0
        },
        "metallicFactor": 0,
        "roughnessFactor": 0.59999999999999998
      }
    },
    {
      "doubleSided": true,
      "emissiveFactor": [
        0,
        0,
        0
      ],
      "name": "material_4",
      "pbrMetallicRoughness": {
        "baseColorFactor": [
          1,
          1,
          1,
          1
        ],
        "baseColorTexture": {
          "index": 1,
          "texCoord": 0
        },
        "metallicFactor": 0,
        "roughnessFactor": 0.59999999999999998
      }
    },
    {
      "doubleSided": true,
      "emissiveFactor": [
        0,
        0,
        0
      ],
      "name": "material_5",
      "pbrMetallicRoughness": {
        "baseColorFactor": [
          1,
          1,
          1,
          1
        ],
        "baseColorTexture": {
          "index": 2,
          "texCoord": 0
        },
        "metallicFactor": 0,
        "roughnessFactor": 0.59999999999999998
      }
    }
  ],
  "meshes": [
    {
      "primitives": [
        {
          "attributes": {
            "NORMAL": 1,
            "POSITION": 0,
            "TANGENT": 2,
            "TEXCOORD_0": 3
          },
          "indices": 4,
          "material": 0,
          "mode": 4
        }
      ]
    },
    {
      "primitives": [
        {
          "attributes": {
            "NORMAL": 6,
            "POSITION": 5,
            "TANGENT": 7,
            "TEXCOORD_0": 8
          },
          "indices": 9,
          "material": 1,
          "mode": 4
        }
      ]
    },
    {
      "primitives": [
        {
          "attributes": {
            "NORMAL": 11,
            "POSITION": 10,
            "TANGENT": 12,
            "TEXCOORD_0": 13
          },
          "indices": 14,
          "material": 2,
          "mode": 4
        }
      ]
    },
    {
      "primitives": [
        {
          "attributes": {
            "NORMAL": 16,
            "POSITION": 15,
            "TANGENT": 17,
            "TEXCOORD_0": 18
          },
          "indices": 19,
          "material": 3,
          "mode": 4
        }
      ]
    },
    {
      "primitives": [
        {
          "attributes": {
            "NORMAL": 21,
            "POSITION": 20,
            "TANGENT": 22,
            "TEXCOORD_0": 23
          },
          "indices": 24,
          "material": 4,
          "mode": 4
        }
      ]
    }
  ],
  "nodes": [
    {
      "children": [
        1
      ],
      "name": "RootNode (gltf orientation matrix)",
      "rotation": [
        -0.70710678118654746,
        -0,
        -0,
        0.70710678118654757
      ]
    },
    {
      "children": [
        2
      ],
      "name": "RootNode (model correction matrix)"
    },
    {
      "children": [
        3,
        4,
        5,
        6,
        7
      ],
      "name": "buzz.obj.cleaner.gles"
    },
    {
      "mesh": 0,
      "name": ""
    },
    {
      "mesh": 1,
      "name": ""
    },
    {
      "mesh": 2,
      "name": ""
    },
    {
      "mesh": 3,
      "name": ""
    },
    {
      "mesh": 4,
      "name": ""
    }
  ],
  "samplers": [
    {
      "magFilter": 9729,
      "minFilter": 9987,
      "wrapS": 10497,
      "wrapT": 10497
    }
  ],
  "scene": 0,
  "scenes": [
    {
      "name": "OSG_Scene",
      "nodes": [
        0
      ]
    }
  ],
  "textures": [
    {
      "sampler": 0,
      "source": 0
    },
    {
      "sampler": 0,
      "source": 1
    },
    {
      "sampler": 0,
      "source": 2
    },
    {
      "sampler": 0,
      "source": 3
    },
    {
      "sampler": 0,
      "source": 4
    }
  ]
}

